<svg xmlns="http://www.w3.org/2000/svg" width="65" height="52"><path style="fill-rule:nonzero;fill:#000;fill-opacity:1;stroke-width:10;stroke-linecap:butt;stroke-linejoin:miter;stroke:#000;stroke-opacity:1;stroke-miterlimit:10" d="m29.198 84.998.45-84.951" transform="scale(.16456 .16613)"/><path style="fill:none;stroke-width:10;stroke-linecap:butt;stroke-linejoin:miter;stroke:#000;stroke-opacity:1;stroke-miterlimit:10" d="M29.649 5.008h365.54M390.181 5.008V312.53M390.181 307.545H27.18M27.18 312.46v-76.417" transform="scale(.16456 .16613)"/><path style="stroke:none;fill-rule:nonzero;fill:#000;fill-opacity:1" d="M16.68 26.898c0 1.704-.133 3.204-.399 4.497-.265 1.293-.703 2.37-1.308 3.234-.61.863-1.414 1.508-2.422 1.941-1.008.43-2.25.645-3.73.645-1.481 0-2.708-.219-3.684-.66a5.56 5.56 0 0 1-2.352-1.953c-.586-.864-1.004-1.938-1.25-3.223-.25-1.281-.37-2.777-.37-4.48 0-1.63.136-3.067.413-4.313.274-1.246.719-2.281 1.336-3.106.617-.824 1.426-1.445 2.422-1.867.996-.422 2.215-.633 3.656-.633 1.442 0 2.656.211 3.645.633.984.422 1.777 1.047 2.375 1.867.601.825 1.027 1.86 1.281 3.106.258 1.246.387 2.684.387 4.312Zm-2.364 0c0-1.113-.054-2.199-.156-3.261-.105-1.067-.344-2.008-.71-2.832a4.77 4.77 0 0 0-1.626-1.985c-.71-.496-1.683-.746-2.918-.746-1.234 0-2.207.25-2.918.746a4.76 4.76 0 0 0-1.62 1.985c-.372.824-.602 1.765-.7 2.832a37.08 37.08 0 0 0-.14 3.261c0 1.168.046 2.309.14 3.418.098 1.114.32 2.098.672 2.961.348.864.887 1.551 1.605 2.07.723.516 1.711.774 2.961.774 1.254 0 2.239-.258 2.961-.773.723-.52 1.262-1.207 1.625-2.07.36-.864.586-1.848.68-2.962.098-1.109.144-2.25.144-3.418ZM40.25 36.871h-2.164V19.914L30.94 36.871h-1.394l-7.145-16.957v16.957h-1.168V17.324h2.477L30.8 34.57l7.23-17.246h2.219ZM50.188 11.234 46.883 15.2h-1.168l2.11-3.965Zm-2.196 25.637h-2.246V17.324h2.246Zm0 0"/></svg>